# xmcd
#
# Track frame offsets:
#	150
#	14021
#	27391
#	41666
#	54174
#	66315
#	80583
#	94165
#	108067
#	120112
#	134039
#	146666
#	159803
#	172475
#	187448
#	201335
#	215185
#	227983
#	239560
#	253958
#
# Disc length: 3563 seconds
#
# Revision: 1
# Processed by: cddbd v1.5.2PL0 Copyright (c) Steve Scherf et al.
# Submitted via: audiograbber 1.83.01
#
DISCID=380de914
DTITLE=Carter Family - Essential CD Collection - 2
DYEAR=2016
DGENRE=Country
TTITLE0=I'm Thinking Tonight Of My Blue Eyes
TTITLE1=Wabash Cannonball
TTITLE2=When The World's On Fire
TTITLE3=Worried Man Blues
TTITLE4=Lonesome Valley
TTITLE5=On The Rock Where Moses Stood
TTITLE6=Lonesome Pine Special
TTITLE7=No More The Moon Shines On Lorena
TTITLE8=Weary Prodigal Son
TTITLE9=When I'm Gone
TTITLE10=Lonesome For You
TTITLE11=Can't Feel At Home
TTITLE12=Mid The Green Fields Of Virginia
TTITLE13=Picture On The Wall
TTITLE14=Tell Me That You Love Me
TTITLE15=Where We'll Never Grow Old
TTITLE16=We Will March Through The Streets Of The City
TTITLE17=I'll Be Home Someday
TTITLE18=Faded Coat Of Blue
TTITLE19=Give Me Your Love And I'll Give You Mine
EXTD=
EXTT0=
EXTT1=
EXTT2=
EXTT3=
EXTT4=
EXTT5=
EXTT6=
EXTT7=
EXTT8=
EXTT9=
EXTT10=
EXTT11=
EXTT12=
EXTT13=
EXTT14=
EXTT15=
EXTT16=
EXTT17=
EXTT18=
EXTT19=
PLAYORDER=
